<?xml version="1.0" encoding="UTF-8"?>
<svg width="1024px" height="1024px" viewBox="0 0 1024 1024" xmlns="http://www.w3.org/2000/svg" xmlns:xlink="http://www.w3.org/1999/xlink" version="1.1">
 <!-- Generated by Pixelmator Pro 1.7.1 -->
 <path id="Ellipse-copy" d="M511.823 912 C289.706 912 109.645 733.138 109.645 512.5 109.645 291.862 289.706 113 511.823 113 733.939 113 914 291.862 914 512.5 914 733.138 733.939 912 511.823 912 Z M511.5 834 C690.716 834 836 689.683 836 511.66 836 333.637 690.716 189.32 511.5 189.32 332.284 189.32 187 333.637 187 511.66 187 689.683 332.284 834 511.5 834 Z" fill="#107dcd" fill-opacity="1" stroke="none"/>
 <path id="Rounded-Rectangle" d="M647.5 645.5 C632.27 660.73 632.27 685.424 647.5 700.654 L830.569 883.723 C845.799 898.953 870.493 898.953 885.723 883.723 L885.723 883.723 C900.953 868.493 900.953 843.799 885.723 828.569 L702.654 645.5 C687.424 630.27 662.73 630.27 647.5 645.5 Z" fill="#107dcd" fill-opacity="1" stroke="none"/>
</svg>
